<?xml version="1.0" encoding="utf-8"?>
<!-- Generator: Adobe Illustrator 19.2.1, SVG Export Plug-In . SVG Version: 6.00 Build 0)  -->
<svg version="1.1" id="Layer_1" xmlns="http://www.w3.org/2000/svg" xmlns:xlink="http://www.w3.org/1999/xlink" x="0px" y="0px"
	 viewBox="0 0 512 512" style="enable-background:new 0 0 512 512;" xml:space="preserve">
<style type="text/css">
	.st0{fill:#0099FF;}
</style>
<g>
	<g>
		<path class="st0" d="M133.4,182.1l-21.9-11.6c-1.9-1-4.3-0.3-5.3,1.6c-0.7,1.5-1.5,3-2.2,4.5c0,0.1-0.1,0.1-0.1,0.2
			c-6.3,13.6-10.7,27.9-13.2,42.6c-0.4,2.1,1.1,4.1,3.3,4.4l24.5,3.5c2.1,0.3,3.9-1.1,4.3-3.2c0.2-1.4,0.6-2.8,0.9-4.3v-0.1
			c1.1-5.6,2.6-11,4.4-16.3c0.1-0.3,0.2-0.6,0.3-0.9c0.8-2.2,1.6-4.4,2.5-6.6c0.3-0.7,0.6-1.4,0.9-2.1c1-2.3,2-4.5,3.1-6.7
			C135.9,185.4,135.2,183.1,133.4,182.1"/>
		<path class="st0" d="M381,196.1c0.9,2.2,1.7,4.4,2.5,6.6c0.1,0.3,0.2,0.6,0.3,0.9c1.8,5.3,3.3,10.8,4.4,16.3v0.1
			c0.3,1.4,0.6,2.8,0.9,4.3c0.4,2.1,2.2,3.5,4.3,3.2l24.5-3.5c2.1-0.3,3.6-2.3,3.3-4.4c-2.5-14.7-6.9-29-13.2-42.6
			c0-0.1-0.1-0.1-0.1-0.1c-0.7-1.5-1.4-3-2.2-4.5c-1-1.9-3.4-2.7-5.3-1.6l-21.9,11.6c-1.8,1-2.5,3.2-1.6,5.1
			c1.1,2.2,2.1,4.5,3.1,6.7C380.4,194.7,380.7,195.4,381,196.1"/>
		<path class="st0" d="M318.7,127.6c2.5,1.3,5,2.7,7.5,4.2c0.1,0,0.2,0.1,0.2,0.1c2.4,1.5,4.8,3,7.1,4.6c0.1,0.1,0.2,0.1,0.2,0.2
			c2.2,1.6,4.4,3.2,6.6,5c0.2,0.1,0.3,0.3,0.5,0.4c2,1.6,4,3.3,5.9,5c1.2,1.1,2.4,2.2,3.6,3.3c1.5,1.5,3.8,1.5,5.3,0l17.8-17.2
			c1.5-1.5,1.6-4,0.1-5.5c-1.2-1.2-2.5-2.3-3.7-3.4c-0.1-0.1-0.1-0.1-0.1-0.2c-0.4-0.3-0.7-0.6-1.1-0.9c-2.2-2-4.4-3.9-6.6-5.7
			c-0.5-0.4-1.1-0.9-1.6-1.3c-2.4-1.9-4.9-3.8-7.4-5.6c-0.5-0.3-0.9-0.6-1.4-1c-2.6-1.8-5.3-3.5-8-5.2c-0.5-0.3-1-0.6-1.4-0.9
			c-1.4-0.9-2.9-1.8-4.3-2.6c-0.2-0.1-0.5-0.1-0.7-0.2c-1.3-0.7-2.6-1.5-3.9-2.2c-1.9-1-4.3-0.2-5.2,1.7L317,122.5
			C316.1,124.4,316.9,126.6,318.7,127.6"/>
		<path class="st0" d="M236.5,113.5c2.4-0.4,4.8-0.6,7.2-0.8c1-0.1,2-0.2,3-0.2c1.7-0.1,3.5-0.2,5.2-0.3c1.4,0,2.7-0.1,4.1-0.1
			c1.4,0,2.7,0,4.1,0.1c1.7,0.1,3.5,0.1,5.2,0.3c1,0.1,2,0.1,3,0.2c2.4,0.2,4.8,0.5,7.2,0.8c2.1,0.3,4-1,4.4-3.1l4.3-24.4
			c0.4-2.1-1.1-4.2-3.2-4.5c-1.7-0.3-3.4-0.5-5-0.7c-0.1,0-0.1-0.1-0.2-0.1c-5.7-0.7-11.4-1-17.1-1.1c-0.9,0-1.8,0-2.6,0
			c-0.9,0-1.8,0-2.6,0c-5.7,0.1-11.4,0.5-17.1,1.1c-0.1,0-0.1,0-0.2,0.1c-1.7,0.2-3.4,0.4-5,0.7c-2.1,0.3-3.6,2.4-3.2,4.5l4.3,24.4
			C232.5,112.5,234.4,113.8,236.5,113.5"/>
		<path class="st0" d="M156.4,150.5c1.5,1.5,3.9,1.4,5.3,0c1.2-1.1,2.4-2.2,3.6-3.3c1.9-1.7,3.9-3.4,5.9-5c0.2-0.1,0.3-0.3,0.5-0.4
			c2.2-1.7,4.3-3.4,6.6-5c0.1-0.1,0.2-0.1,0.2-0.2c2.3-1.6,4.7-3.2,7.1-4.6c0.1,0,0.2-0.1,0.2-0.1c2.4-1.5,4.9-2.9,7.5-4.2
			c1.8-1,2.6-3.2,1.7-5.1l-10.9-22.2c-0.9-1.9-3.3-2.7-5.2-1.7c-1.3,0.7-2.6,1.5-3.9,2.2c-0.2,0.1-0.5,0.1-0.7,0.2
			c-1.5,0.8-2.9,1.7-4.3,2.6c-0.5,0.3-1,0.6-1.4,0.9c-2.7,1.7-5.4,3.4-8,5.2c-0.5,0.3-0.9,0.6-1.4,1c-2.5,1.8-5,3.7-7.4,5.6
			c-0.5,0.4-1.1,0.9-1.6,1.3c-2.3,1.8-4.5,3.8-6.6,5.7c-0.4,0.3-0.7,0.6-1.1,0.9c-0.1,0.1-0.1,0.1-0.1,0.2c-1.2,1.1-2.5,2.2-3.7,3.4
			c-1.5,1.5-1.5,4,0.1,5.5L156.4,150.5z"/>
		<path class="st0" d="M417.9,270l-24.5-3.5c-2.1-0.3-3.9,1.1-4.3,3.2c-1.9,11.5-5.4,22.6-10.2,33.2c-0.9,1.9-0.1,4.1,1.8,5
			l22.2,10.9c1.9,0.9,4.3,0.1,5.2-1.8c6.3-13.6,10.7-27.9,13.1-42.7C421.6,272.3,420.1,270.3,417.9,270"/>
	</g>
</g>
<path d="M203.2,210c0.5-6.9,6.3-8.7,9.6-8.7c2.2,0,4.7,0.9,6.3,2.3c1.3,1.1,2.8,2.9,2.8,6.8v84.5h14.8V188.4c0-3.8,2.8-9.1,9.1-9.1
	s9.1,5.3,9.1,9.1v101h14.8v-90c0-2.7,0.7-5.1,1.8-6.6c1.1-1.3,2.7-2.6,7.3-2.6c4,0,5.4,0.8,6.6,2.4c0.8,1,2.5,4.2,2.5,12.3v95.5
	h14.8v-68c0-4.6,0.6-8.4,1.7-10.7c1.2-2.5,2.2-3.9,7.4-3.9c5.3,0,6.2,1.4,7.4,3.9c1.1,2.3,1.7,6.1,1.7,10.7v159.7
	c0,20.2-16.4,36.6-36.6,36.6h-44.6c-11.8,0-22-5-29-14.2L147,332.6c-0.1-0.3-0.3-0.5-0.6-0.9c-2.4-2.4-3.8-5.5-3.7-8.6
	c0.1-2.9,1.3-5.6,3.7-7.8c2.4-2.4,5.4-3.7,8.4-3.7h0.1c2.8,0,5.5,1.2,7.6,3.4l27.3,32.8c1.2,1.5,3,2.5,5,2.7c2,0.3,3.9-0.3,5.4-1.6
	c1.8-1.4,2.9-3.7,2.8-6L203.2,210z M332.6,215.3c-2.9-5.9-9.8-12.3-20.6-12.3c-3.1,0-6.1,0.7-9.1,2v-0.1c0-9.4-1.8-16.2-5.7-21.3
	c-4-5.3-10.5-8.1-18.2-8.1c-4,0-7.7,0.9-11.5,2.9c-3.9-8.6-12.2-14-21.6-14c-14.8,0-23.9,12.4-23.9,23.9v0.2
	c-3.1-1.4-6.2-2.1-9.1-2.1c-11.4,0-23.7,8.6-24.4,23.4v113l-14.4-17.3l-0.4-0.6c-4.6-5-11-7.8-17.9-8c-7.3-0.1-14.3,2.7-19.5,7.7
	l-0.9,0.9v0.1c-4.5,4.6-7,10.6-7.2,17.1c-0.2,7.1,2.4,13.9,7.2,18.8l63.9,82c9.5,12.7,24.3,20,40.6,20h44.6
	c28.4,0,51.5-23.1,51.5-51.4V232.4C335.9,227.6,335.5,221.3,332.6,215.3"/>
</svg>
